<svg width="384" height="360" viewBox="0 0 384 360" fill="none" xmlns="http://www.w3.org/2000/svg">
<g clip-path="url(#clip0)">
<path d="M323.173 85.3262H321.156V31.2802C321.156 22.9841 317.782 15.0279 311.776 9.16175C305.77 3.29558 297.625 4.08033e-09 289.131 4.08033e-09H171.901C167.696 -6.63418e-05 163.531 0.808953 159.646 2.38087C155.761 3.95278 152.23 6.2568 149.257 9.16139C146.283 12.066 143.924 15.5142 142.314 19.3093C140.705 23.1044 139.877 27.1719 139.876 31.2797V327.78C139.876 336.076 143.25 344.032 149.256 349.899C155.262 355.765 163.407 359.06 171.901 359.06H289.13C297.623 359.06 305.769 355.765 311.774 349.899C317.78 344.032 321.154 336.076 321.154 327.78V123.797H323.171L323.173 85.3262Z" fill="#1D1D1A"/>
<path d="M314.587 29.185V329.874C314.586 336.164 312.028 342.196 307.475 346.644C302.922 351.093 296.747 353.593 290.307 353.595H170.672C164.23 353.596 158.051 351.097 153.495 346.649C148.939 342.201 146.378 336.167 146.376 329.874V29.185C146.378 22.8929 148.938 16.8591 153.494 12.4108C158.051 7.96255 164.229 5.46404 170.671 5.46484H185.183C184.471 7.17649 184.199 9.03291 184.393 10.8709C184.587 12.7089 185.241 14.4723 186.296 16.0059C187.351 17.5396 188.775 18.7967 190.444 19.6666C192.113 20.5365 193.975 20.9927 195.867 20.995H264.073C265.965 20.9927 267.827 20.5365 269.496 19.6666C271.165 18.7967 272.589 17.5396 273.645 16.0059C274.7 14.4723 275.353 12.7089 275.547 10.8709C275.741 9.03291 275.47 7.17649 274.757 5.46484H290.302C296.742 5.46592 302.917 7.96472 307.471 12.4119C312.025 16.8591 314.584 22.8906 314.587 29.1805V29.185Z" fill="white"/>
<path d="M230.459 149.893C258.044 149.893 280.406 128.051 280.406 101.107C280.406 74.1638 258.044 52.3217 230.459 52.3217C202.875 52.3217 180.513 74.1638 180.513 101.107C180.513 128.051 202.875 149.893 230.459 149.893Z" fill="#1D1D1A"/>
<path d="M284.932 202.386H178.622C178.1 202.385 177.6 202.182 177.231 201.822C176.862 201.461 176.654 200.973 176.653 200.463V174.705C176.654 174.195 176.862 173.707 177.231 173.346C177.6 172.986 178.1 172.783 178.622 172.782H284.932C285.454 172.783 285.954 172.986 286.323 173.346C286.692 173.707 286.9 174.195 286.9 174.705V200.463C286.9 200.973 286.692 201.462 286.323 201.822C285.954 202.183 285.454 202.386 284.932 202.386V202.386ZM178.622 173.551C178.309 173.551 178.008 173.673 177.787 173.889C177.565 174.106 177.441 174.399 177.441 174.705V200.463C177.441 200.769 177.565 201.063 177.787 201.279C178.008 201.495 178.309 201.617 178.622 201.617H284.932C285.245 201.617 285.545 201.495 285.767 201.279C285.988 201.063 286.113 200.769 286.113 200.463V174.705C286.113 174.399 285.988 174.106 285.767 173.889C285.545 173.673 285.245 173.551 284.932 173.551H178.622Z" fill="#E6E6E6"/>
<path d="M211.499 182.058C211.134 182.058 210.783 182.2 210.525 182.453C210.266 182.705 210.121 183.048 210.121 183.405C210.121 183.762 210.266 184.104 210.525 184.356C210.783 184.609 211.134 184.751 211.499 184.751H276.466C276.831 184.764 277.187 184.636 277.455 184.393C277.724 184.15 277.882 183.814 277.896 183.457C277.91 183.1 277.778 182.752 277.53 182.49C277.282 182.228 276.937 182.074 276.571 182.06C276.551 182.059 276.531 182.059 276.511 182.059H211.499L211.499 182.058Z" fill="#E6E6E6"/>
<path d="M211.499 190.134C211.134 190.134 210.783 190.276 210.525 190.528C210.266 190.781 210.121 191.123 210.121 191.48C210.121 191.837 210.266 192.179 210.525 192.432C210.783 192.684 211.134 192.826 211.499 192.826H276.466C276.831 192.84 277.187 192.711 277.455 192.468C277.724 192.226 277.882 191.889 277.896 191.532C277.91 191.175 277.778 190.828 277.53 190.566C277.282 190.304 276.937 190.149 276.571 190.135C276.551 190.135 276.531 190.134 276.511 190.134H211.499L211.499 190.134Z" fill="#E6E6E6"/>
<path d="M284.932 245.319H178.622C178.1 245.318 177.6 245.115 177.231 244.755C176.862 244.394 176.654 243.905 176.653 243.396V217.638C176.654 217.128 176.862 216.64 177.231 216.279C177.6 215.919 178.1 215.716 178.622 215.715H284.932C285.454 215.716 285.954 215.919 286.323 216.279C286.692 216.64 286.9 217.128 286.9 217.638V243.396C286.9 243.906 286.692 244.394 286.323 244.755C285.954 245.115 285.454 245.318 284.932 245.319V245.319ZM178.622 216.484C178.309 216.484 178.008 216.606 177.787 216.822C177.565 217.039 177.441 217.332 177.441 217.638V243.396C177.441 243.702 177.565 243.995 177.787 244.212C178.008 244.428 178.309 244.55 178.622 244.55H284.932C285.245 244.55 285.545 244.428 285.767 244.212C285.988 243.995 286.113 243.702 286.113 243.396V217.638C286.113 217.332 285.988 217.039 285.767 216.822C285.545 216.606 285.245 216.484 284.932 216.484H178.622Z" fill="#E6E6E6"/>
<path d="M211.499 225.131C211.134 225.131 210.783 225.273 210.525 225.525C210.266 225.777 210.121 226.12 210.121 226.477C210.121 226.834 210.266 227.176 210.525 227.429C210.783 227.681 211.134 227.823 211.499 227.823H276.466C276.826 227.821 277.171 227.681 277.427 227.434C277.684 227.186 277.83 226.851 277.836 226.499C277.842 226.147 277.707 225.807 277.459 225.551C277.211 225.295 276.871 225.145 276.511 225.131H211.499V225.131Z" fill="#E6E6E6"/>
<path d="M211.499 233.208C211.134 233.208 210.783 233.35 210.525 233.602C210.266 233.855 210.121 234.197 210.121 234.554C210.121 234.911 210.266 235.254 210.525 235.506C210.783 235.759 211.134 235.9 211.499 235.9H276.466C276.826 235.898 277.171 235.759 277.427 235.511C277.684 235.264 277.83 234.928 277.836 234.576C277.842 234.224 277.707 233.884 277.459 233.628C277.211 233.373 276.871 233.222 276.511 233.209H211.499V233.208Z" fill="#E6E6E6"/>
<path d="M284.932 288.392H178.622C178.1 288.391 177.6 288.189 177.231 287.828C176.862 287.468 176.654 286.979 176.653 286.469V260.711C176.654 260.202 176.862 259.713 177.231 259.352C177.6 258.992 178.1 258.789 178.622 258.788H284.932C285.454 258.789 285.954 258.992 286.323 259.352C286.692 259.713 286.9 260.202 286.9 260.711V286.469C286.9 286.979 286.692 287.468 286.323 287.828C285.954 288.189 285.454 288.392 284.932 288.392V288.392ZM178.622 259.557C178.309 259.558 178.008 259.679 177.787 259.896C177.565 260.112 177.441 260.405 177.441 260.711V286.469C177.441 286.775 177.565 287.069 177.787 287.285C178.008 287.501 178.309 287.623 178.622 287.623H284.932C285.245 287.623 285.545 287.501 285.767 287.285C285.988 287.069 286.113 286.775 286.113 286.469V260.711C286.113 260.405 285.988 260.112 285.767 259.896C285.545 259.679 285.245 259.558 284.932 259.557H178.622Z" fill="#E6E6E6"/>
<path d="M211.499 268.206C211.134 268.206 210.783 268.347 210.525 268.6C210.266 268.852 210.121 269.195 210.121 269.552C210.121 269.909 210.266 270.251 210.525 270.504C210.783 270.756 211.134 270.898 211.499 270.898H276.466C276.647 270.905 276.827 270.877 276.997 270.815C277.167 270.754 277.323 270.66 277.455 270.54C277.588 270.42 277.695 270.276 277.771 270.115C277.847 269.954 277.889 269.781 277.896 269.604C277.903 269.427 277.874 269.251 277.811 269.085C277.749 268.919 277.653 268.767 277.53 268.638C277.407 268.508 277.259 268.403 277.095 268.329C276.93 268.255 276.752 268.214 276.571 268.207C276.551 268.206 276.531 268.206 276.511 268.206H211.499L211.499 268.206Z" fill="#E6E6E6"/>
<path d="M211.499 276.282C211.134 276.282 210.783 276.424 210.525 276.677C210.266 276.929 210.121 277.272 210.121 277.629C210.121 277.986 210.266 278.328 210.525 278.58C210.783 278.833 211.134 278.975 211.499 278.975H276.466C276.647 278.981 276.827 278.953 276.997 278.892C277.167 278.831 277.323 278.737 277.455 278.617C277.588 278.497 277.695 278.352 277.771 278.192C277.847 278.031 277.889 277.858 277.896 277.681C277.903 277.504 277.874 277.328 277.811 277.162C277.749 276.996 277.653 276.844 277.53 276.714C277.407 276.585 277.259 276.48 277.095 276.406C276.93 276.332 276.752 276.291 276.571 276.284C276.551 276.283 276.531 276.283 276.511 276.283H211.499L211.499 276.282Z" fill="#E6E6E6"/>
<path d="M382.998 360H1.00238C0.448432 360 0 359.764 0 359.472C0 359.181 0.448949 358.944 1.00238 358.944H382.998C383.551 358.944 384 359.181 384 359.472C384 359.764 383.552 360 382.998 360Z" fill="#E6E6E6"/>
<path d="M366.82 339.405C365.188 339.965 363.435 340.106 361.732 339.813C360.028 339.519 358.43 338.803 357.093 337.731C353.686 334.938 352.618 330.337 351.749 326.076L349.178 313.474L354.56 317.093C358.43 319.696 362.387 322.383 365.068 326.153C367.748 329.924 368.918 335.071 366.764 339.15" fill="#E6E6E6"/>
<path d="M365.989 355.54C366.666 350.719 367.363 345.837 366.887 340.965C366.465 336.638 365.114 332.412 362.362 328.947C360.902 327.111 359.125 325.538 357.111 324.299C356.586 323.975 356.102 324.788 356.625 325.11C360.11 327.261 362.805 330.438 364.322 334.182C365.998 338.345 366.267 342.883 365.977 347.306C365.802 349.98 365.432 352.637 365.06 355.29C365.03 355.41 365.049 355.537 365.111 355.644C365.173 355.751 365.275 355.832 365.396 355.868C365.519 355.901 365.65 355.884 365.761 355.823C365.871 355.761 365.953 355.66 365.987 355.54H365.989Z" fill="#F2F2F2"/>
<path d="M361.113 347.805C360.413 348.844 359.451 349.69 358.319 350.26C357.187 350.831 355.924 351.107 354.652 351.062C351.381 350.911 348.654 348.681 346.2 346.566L338.941 340.304L343.745 340.079C347.201 339.918 350.745 339.767 354.038 340.808C357.332 341.849 360.365 344.354 360.966 347.679" fill="#E6E6E6"/>
<path d="M367.903 358.311C364.644 352.675 360.859 346.411 354.1 344.409C352.221 343.854 350.251 343.655 348.295 343.823C347.679 343.874 347.833 344.803 348.45 344.751C351.728 344.485 355 345.331 357.715 347.145C360.327 348.882 362.361 351.297 364.082 353.858C365.137 355.424 366.082 357.061 367.026 358.694C367.326 359.215 368.208 358.839 367.903 358.311Z" fill="#F2F2F2"/>
<path d="M191.885 195.502C196.451 195.502 200.153 191.886 200.153 187.426C200.153 182.965 196.451 179.35 191.885 179.35C187.318 179.35 183.616 182.965 183.616 187.426C183.616 191.886 187.318 195.502 191.885 195.502Z" fill="#1D1D1A"/>
<path d="M187.927 185.917C187.831 185.917 187.754 186.52 187.754 187.263C187.754 188.006 187.831 188.61 187.927 188.61H196.057C196.152 188.622 196.231 188.029 196.232 187.286C196.285 186.823 196.227 186.355 196.063 185.918H187.927V185.917Z" fill="#E6E6E6"/>
<path d="M191.885 238.593C196.451 238.593 200.153 234.977 200.153 230.517C200.153 226.056 196.451 222.44 191.885 222.44C187.318 222.44 183.616 226.056 183.616 230.517C183.616 234.977 187.318 238.593 191.885 238.593Z" fill="#1D1D1A"/>
<path d="M187.927 229.008C187.831 229.008 187.754 229.611 187.754 230.354C187.754 231.097 187.831 231.701 187.927 231.701H196.057C196.152 231.713 196.231 231.12 196.232 230.377C196.285 229.914 196.227 229.446 196.063 229.009H187.927V229.008Z" fill="#E6E6E6"/>
<path d="M191.885 281.667C196.451 281.667 200.153 278.051 200.153 273.59C200.153 269.13 196.451 265.514 191.885 265.514C187.318 265.514 183.616 269.13 183.616 273.59C183.616 278.051 187.318 281.667 191.885 281.667Z" fill="#1D1D1A"/>
<path d="M187.927 272.082C187.831 272.082 187.754 272.684 187.754 273.427C187.754 274.171 187.831 274.774 187.927 274.774H196.057C196.152 274.786 196.231 274.193 196.232 273.45C196.285 272.987 196.227 272.519 196.063 272.082H187.927V272.082Z" fill="#E6E6E6"/>
<path d="M219.67 87.7109L216.744 90.5688L241.249 114.504L244.174 111.646L219.67 87.7109Z" fill="white"/>
<path d="M244.174 90.569L241.249 87.7111L216.744 111.646L219.67 114.504L244.174 90.569Z" fill="white"/>
<path d="M46.6848 230.445C47.4016 230.197 48.0541 229.798 48.5962 229.278C49.1384 228.757 49.5571 228.126 49.8228 227.431C50.0884 226.735 50.1947 225.99 50.134 225.25C50.0733 224.51 49.8472 223.791 49.4715 223.146L61.6602 209.574L52.1455 208.292L42.0297 221.376C40.9609 222.065 40.1877 223.112 39.8567 224.32C39.5257 225.528 39.6598 226.812 40.2336 227.93C40.8074 229.048 41.781 229.921 42.97 230.385C44.1591 230.848 45.4808 230.869 46.6848 230.445V230.445Z" fill="#9F616A"/>
<path d="M61.3842 350.725L52.8836 350.725L48.8394 318.697L61.3858 318.698L61.3842 350.725Z" fill="#9F616A"/>
<path d="M63.5523 358.774L36.1418 358.773V358.435C36.142 355.671 37.2661 353.02 39.2669 351.066C41.2677 349.112 43.9812 348.014 46.8107 348.014H46.8114L63.5528 348.014L63.5523 358.774Z" fill="#2F2E41"/>
<path d="M105.884 343.777L97.7651 346.238L84.1796 316.823L96.1617 313.19L105.884 343.777Z" fill="#9F616A"/>
<path d="M110.398 350.836L84.22 358.774L84.1172 358.451C83.2783 355.811 83.5471 352.954 84.8646 350.509C86.1821 348.063 88.4402 346.228 91.1424 345.408L91.1431 345.408L107.132 340.56L110.398 350.836Z" fill="#2F2E41"/>
<path d="M54.8744 203.066L42.2844 217.15L52.1408 218.016L54.8744 203.066Z" fill="#E6E6E6"/>
<path d="M49.955 221.22C49.955 221.22 45.5818 223.355 45.0351 232.967C44.4884 242.578 46.6753 267.675 46.6753 267.675C46.6753 267.675 44.4889 278.887 46.6753 289.032C48.8616 299.177 44.4889 336.017 47.222 336.017C49.955 336.017 64.1674 337.619 64.7142 336.017C65.2609 334.415 65.8076 310.388 65.8076 310.388C65.8076 310.388 70.1808 298.107 65.8076 290.634C65.8076 290.634 81.0766 316.677 90.9527 336.552C93.1142 340.902 109.538 336.018 106.805 331.213C104.072 326.407 97.5127 304.516 97.5127 304.516C97.5127 304.516 92.5928 288.497 83.847 281.556L88.2202 247.384C88.2202 247.384 97.5132 224.425 92.0477 221.221C86.5821 218.018 49.955 221.22 49.955 221.22Z" fill="#1D1D1A"/>
<path d="M66.3538 134.188C74.2031 134.188 80.5662 127.972 80.5662 120.306C80.5662 112.639 74.2031 106.423 66.3538 106.423C58.5045 106.423 52.1414 112.639 52.1414 120.306C52.1414 127.972 58.5045 134.188 66.3538 134.188Z" fill="#A0616A"/>
<path d="M82.2063 135.256L64.5377 145.4C64.5377 145.4 57.7724 149.122 55.2452 155.545C52.5515 162.391 54.1171 172.029 55.2452 174.233C57.4315 178.504 54.3282 189.183 54.3282 189.183L51.5951 213.744C51.5951 213.744 41.7559 222.82 49.4088 223.888C57.0617 224.956 70.7274 223.354 78.9271 223.888C87.1267 224.422 96.4193 225.49 93.6862 220.15C90.9532 214.809 87.6734 211.073 90.9532 200.396C93.5197 192.04 93.4085 160.796 93.2388 147.602C93.2155 145.79 92.7179 144.014 91.7935 142.442C90.869 140.871 89.5485 139.557 87.9574 138.625L82.2063 135.256Z" fill="#E5E5E5"/>
<path opacity="0.1" d="M74.2824 152.075L75.922 184.645L60.0296 216.081L57.3344 215.079L73.7336 185.713L74.2824 152.075Z" fill="black"/>
<path opacity="0.1" d="M92.3193 191.586V187.847L73.7357 217.749L92.3193 191.586Z" fill="black"/>
<path d="M56.2668 107.445L53.9191 106.528C53.9191 106.528 58.8328 101.245 65.6669 101.704L63.7444 99.6368C63.7444 99.6368 68.4434 97.7994 72.7157 102.623C74.9615 105.158 77.5596 108.139 79.1811 111.496H81.6974L80.6474 113.755L84.3229 116.014L80.5502 115.61C80.9075 117.56 80.7852 119.565 80.1933 121.459L80.2968 123.245C80.2968 123.245 75.9215 116.632 75.9215 115.715V118.012C75.9215 118.012 73.5717 115.945 73.5717 114.566L72.29 116.174L71.6492 113.648L63.7459 116.174L65.0266 114.106L60.1129 114.795L62.0355 112.269C62.0355 112.269 56.482 115.255 56.2683 117.782C56.0547 120.309 53.2783 123.524 53.2783 123.524L51.9966 121.227C51.9966 121.227 50.0745 110.891 56.2668 107.445Z" fill="#2F2E41"/>
<path d="M65.4618 231.955C66.1222 231.587 66.6919 231.082 67.1309 230.476C67.5698 229.869 67.8672 229.176 68.0022 228.445C68.1372 227.714 68.1065 226.963 67.9123 226.245C67.718 225.527 67.3649 224.859 66.8779 224.289L76.4066 208.82L66.81 209.207L59.2327 223.838C58.306 224.701 57.7354 225.866 57.6291 227.112C57.5229 228.358 57.8883 229.599 58.6561 230.599C59.4239 231.6 60.5408 232.29 61.7952 232.54C63.0495 232.79 64.3541 232.582 65.4618 231.955V231.955Z" fill="#9F616A"/>
<path d="M87.1268 142.198L91.2264 141.397C91.2264 141.397 103.526 150.207 99.6991 167.827C95.8726 185.446 78.9272 212.143 78.9272 212.143C78.9272 212.143 75.0997 216.949 74.0073 218.016C72.9149 219.084 70.7275 218.016 71.821 219.618C72.9144 221.22 70.1808 222.288 70.1808 222.288C70.1808 222.288 58.1547 222.288 59.2481 218.016C60.3416 213.745 78.9272 183.308 78.9272 183.308L76.1941 155.01C76.1941 155.01 74.0068 141.13 87.1268 142.198Z" fill="#E5E5E5"/>
</g>
<defs>
<clipPath id="clip0">
<rect width="384" height="360" fill="white"/>
</clipPath>
</defs>
</svg>
