<svg width="85" height="38" viewBox="0 0 85 38" fill="none" xmlns="http://www.w3.org/2000/svg">
<path d="M5.98438 20.4844L14.5312 23.3594V28.1562L0.71875 22.5312V18.375L14.5312 12.75V17.5312L5.98438 20.4844ZM18.0312 30V7.25H25.3594C27.3698 7.25 29.1771 7.70833 30.7812 8.625C32.3854 9.53125 33.6354 10.8177 34.5312 12.4844C35.4375 14.1406 35.8958 16 35.9062 18.0625V19.1094C35.9062 21.1927 35.4635 23.0625 34.5781 24.7188C33.7031 26.3646 32.4635 27.6562 30.8594 28.5938C29.2656 29.5208 27.4844 29.9896 25.5156 30H18.0312ZM23.5156 11.4844V25.7812H25.4219C26.9948 25.7812 28.2031 25.224 29.0469 24.1094C29.8906 22.9844 30.3125 21.3177 30.3125 19.1094V18.125C30.3125 15.9271 29.8906 14.2708 29.0469 13.1562C28.2031 12.0417 26.974 11.4844 25.3594 11.4844H23.5156ZM50.4531 23.9531C50.4531 23.151 50.1667 22.526 49.5938 22.0781C49.0312 21.6302 48.0365 21.1667 46.6094 20.6875C45.1823 20.2083 44.0156 19.7448 43.1094 19.2969C40.1615 17.849 38.6875 15.8594 38.6875 13.3281C38.6875 12.0677 39.0521 10.9583 39.7812 10C40.5208 9.03125 41.5625 8.28125 42.9062 7.75C44.25 7.20833 45.7604 6.9375 47.4375 6.9375C49.0729 6.9375 50.5365 7.22917 51.8281 7.8125C53.1302 8.39583 54.1406 9.22917 54.8594 10.3125C55.5781 11.3854 55.9375 12.6146 55.9375 14H50.4688C50.4688 13.0729 50.1823 12.3542 49.6094 11.8438C49.0469 11.3333 48.2812 11.0781 47.3125 11.0781C46.3333 11.0781 45.5573 11.2969 44.9844 11.7344C44.4219 12.1615 44.1406 12.7083 44.1406 13.375C44.1406 13.9583 44.4531 14.4896 45.0781 14.9688C45.7031 15.4375 46.8021 15.9271 48.375 16.4375C49.9479 16.9375 51.2396 17.4792 52.25 18.0625C54.7083 19.4792 55.9375 21.4323 55.9375 23.9219C55.9375 25.9115 55.1875 27.474 53.6875 28.6094C52.1875 29.7448 50.1302 30.3125 47.5156 30.3125C45.6719 30.3125 44 29.9844 42.5 29.3281C41.0104 28.6615 39.8854 27.7552 39.125 26.6094C38.375 25.4531 38 24.125 38 22.625H43.5C43.5 23.8438 43.8125 24.7448 44.4375 25.3281C45.0729 25.901 46.099 26.1875 47.5156 26.1875C48.4219 26.1875 49.1354 25.9948 49.6562 25.6094C50.1875 25.2135 50.4531 24.6615 50.4531 23.9531ZM60.3125 31.9531H56.5781L64.3438 7.25H68.0938L60.3125 31.9531ZM78.5156 20.4375L70.0156 17.5469V12.7656L83.75 18.3906V22.5469L70.0156 28.1719V23.3906L78.5156 20.4375Z" fill="#2B2D42"/>
</svg>
